<?xml version="1.0" encoding="UTF-8" standalone="no"?>
<svg
   xmlns:dc="http://purl.org/dc/elements/1.1/"
   xmlns:cc="http://creativecommons.org/ns#"
   xmlns:rdf="http://www.w3.org/1999/02/22-rdf-syntax-ns#"
   xmlns:svg="http://www.w3.org/2000/svg"
   xmlns="http://www.w3.org/2000/svg"
   xmlns:sodipodi="http://sodipodi.sourceforge.net/DTD/sodipodi-0.dtd"
   xmlns:inkscape="http://www.inkscape.org/namespaces/inkscape"
   inkscape:version="1.0 (4035a4fb49, 2020-05-01)"
   sodipodi:docname="instagram-black.svg"
   xml:space="preserve"
   style="enable-background:new 0 0 551.034 551.034;"
   viewBox="0 0 551.034 551.034"
   y="0px"
   x="0px"
   id="Layer_1"
   version="1.1"><metadata
   id="metadata72"><rdf:RDF><cc:Work
       rdf:about=""><dc:format>image/svg+xml</dc:format><dc:type
         rdf:resource="http://purl.org/dc/dcmitype/StillImage" /><dc:title></dc:title></cc:Work></rdf:RDF></metadata><defs
   id="defs70" /><sodipodi:namedview
   inkscape:current-layer="Layer_1"
   inkscape:window-maximized="1"
   inkscape:window-y="32"
   inkscape:window-x="0"
   inkscape:cy="275.517"
   inkscape:cx="275.517"
   inkscape:zoom="1.4227797"
   showgrid="false"
   id="namedview68"
   inkscape:window-height="1028"
   inkscape:window-width="1920"
   inkscape:pageshadow="2"
   inkscape:pageopacity="0"
   guidetolerance="10"
   gridtolerance="10"
   objecttolerance="10"
   borderopacity="1"
   bordercolor="#666666"
   pagecolor="#ffffff" />
<g
   style="fill:#000000"
   id="g35">
	
		<linearGradient
   gradientTransform="matrix(1 0 0 -1 0 554)"
   y2="549.72"
   x2="275.517"
   y1="4.57"
   x1="275.517"
   gradientUnits="userSpaceOnUse"
   id="SVGID_1_">
		<stop
   id="stop2"
   style="stop-color:#E09B3D"
   offset="0" />
		<stop
   id="stop4"
   style="stop-color:#C74C4D"
   offset="0.3" />
		<stop
   id="stop6"
   style="stop-color:#C21975"
   offset="0.6" />
		<stop
   id="stop8"
   style="stop-color:#7024C4"
   offset="1" />
	</linearGradient>
	<path
   id="path11"
   d="M386.878,0H164.156C73.64,0,0,73.64,0,164.156v222.722   c0,90.516,73.64,164.156,164.156,164.156h222.722c90.516,0,164.156-73.64,164.156-164.156V164.156   C551.033,73.64,477.393,0,386.878,0z M495.6,386.878c0,60.045-48.677,108.722-108.722,108.722H164.156   c-60.045,0-108.722-48.677-108.722-108.722V164.156c0-60.046,48.677-108.722,108.722-108.722h222.722   c60.045,0,108.722,48.676,108.722,108.722L495.6,386.878L495.6,386.878z"
   style="fill:#000000" />
	
		<linearGradient
   gradientTransform="matrix(1 0 0 -1 0 554)"
   y2="549.72"
   x2="275.517"
   y1="4.57"
   x1="275.517"
   gradientUnits="userSpaceOnUse"
   id="SVGID_2_">
		<stop
   id="stop13"
   style="stop-color:#E09B3D"
   offset="0" />
		<stop
   id="stop15"
   style="stop-color:#C74C4D"
   offset="0.3" />
		<stop
   id="stop17"
   style="stop-color:#C21975"
   offset="0.6" />
		<stop
   id="stop19"
   style="stop-color:#7024C4"
   offset="1" />
	</linearGradient>
	<path
   id="path22"
   d="M275.517,133C196.933,133,133,196.933,133,275.516s63.933,142.517,142.517,142.517   S418.034,354.1,418.034,275.516S354.101,133,275.517,133z M275.517,362.6c-48.095,0-87.083-38.988-87.083-87.083   s38.989-87.083,87.083-87.083c48.095,0,87.083,38.988,87.083,87.083C362.6,323.611,323.611,362.6,275.517,362.6z"
   style="fill:#000000" />
	
		<linearGradient
   gradientTransform="matrix(1 0 0 -1 0 554)"
   y2="549.72"
   x2="418.31"
   y1="4.57"
   x1="418.31"
   gradientUnits="userSpaceOnUse"
   id="SVGID_3_">
		<stop
   id="stop24"
   style="stop-color:#E09B3D"
   offset="0" />
		<stop
   id="stop26"
   style="stop-color:#C74C4D"
   offset="0.3" />
		<stop
   id="stop28"
   style="stop-color:#C21975"
   offset="0.6" />
		<stop
   id="stop30"
   style="stop-color:#7024C4"
   offset="1" />
	</linearGradient>
	<circle
   id="circle33"
   r="34.15"
   cy="134.07"
   cx="418.31"
   style="fill:#000000" />
</g>
<g
   id="g37">
</g>
<g
   id="g39">
</g>
<g
   id="g41">
</g>
<g
   id="g43">
</g>
<g
   id="g45">
</g>
<g
   id="g47">
</g>
<g
   id="g49">
</g>
<g
   id="g51">
</g>
<g
   id="g53">
</g>
<g
   id="g55">
</g>
<g
   id="g57">
</g>
<g
   id="g59">
</g>
<g
   id="g61">
</g>
<g
   id="g63">
</g>
<g
   id="g65">
</g>
</svg>
