<svg id="Capa_1" enable-background="new 0 0 512 512" height="512" viewBox="0 0 512 512" width="512" xmlns="http://www.w3.org/2000/svg"><g><path d="m342.5 118.8c-13-17.2-20.7-38.6-20.7-61.7 0-14.8-9-27.5-21.8-33.1 1.8 4.2 2.7 8.9 2.7 13.8.1 32.9 15.6 62.2 39.8 81z" fill="#cc0039"/><path d="m161.6 314.4c-22.4 6.7-38 27.8-38 51.1 0 19.5 10.5 36.6 26.1 45.9-4.5-7.8-7.1-16.9-7.1-26.6 0-23.4 15.6-44.4 38-51.1 19.1-5.7 29.8-25.8 24.1-44.9-3.2-10.6-10.8-18.6-20.2-22.7.4 1.1.9 2.2 1.2 3.4 5.7 19.1-5.1 39.2-24.1 44.9z" fill="#f00044"/><path d="m177 491c-30.1 0-57.7-10.6-79.3-28.3 23 29 58.5 47.6 98.3 47.6 22.1 0 42.9-5.8 60.9-15.8v-32.3c-21.7 18-49.5 28.8-79.9 28.8z" fill="#f00044"/><path d="m438.7 162.8c1.8 4.2 2.7 8.8 2.7 13.6 0 19.9-16.1 36-36 36-38.5 0-74.1-12.5-103-33.7v187 .2c-.1 38.6-17.9 73.2-45.5 96.1v32.3c38.3-21.4 64.3-62.3 64.5-109.1 0-.1 0-.2 0-.2v-187c28.9 21.1 64.5 33.7 103 33.7 19.9 0 36-16.1 36-36 0-14.6-9-27.3-21.7-32.9z" fill="#b10042"/><path d="m95.8 309.3c16-21.2 38.7-37 64-44.6 8.5-2.5 17.1-1.8 24.7 1.4-7-16.9-25.8-26.1-43.7-20.7-25.3 7.6-48 23.5-64 44.6-16.5 21.9-25.3 48-25.3 75.5 0 39.1 18 74.1 46.1 97.1-17-21.4-27.1-48.5-27.1-77.8.1-27.4 8.8-53.6 25.3-75.5z" fill="#08fff9"/><path d="m424 159.7c5.2 0 10.1 1.1 14.6 3.1-5.5-13.1-18.6-22.4-33.7-22.4-23.6-.1-45.3-8.1-62.6-21.6 18.8 24.7 48.5 40.8 81.7 40.9z" fill="#00ccc7"/><path d="m272 2.1c-3.2-.5-6.5-.6-9.9-.2-1.8.2-3.5.6-5.2 1v32.3c5.7-7.6 14.2-12.9 24.2-14 3.4-.4 6.7-.3 9.9.2 3.1.5 6.1 1.3 9 2.6-4.8-11.5-15.3-20-28-21.9z" fill="#00ccc7"/><path d="m230.4 38.4v326.2c0 30.7-25.5 55.9-56.2 54.3-8.9-.5-17.2-3.1-24.5-7.4 8.8 15.2 24.9 25.8 43.5 26.7 30.7 1.6 56.2-23.5 56.2-54.3v-326.2c0-8.3 2.8-16.2 7.5-22.4v-32.3c-15.5 4.3-26.5 18.8-26.5 35.4z" fill="#08fff9"/><path d="m249.4 57.7v326.2c0 30.7-25.5 55.9-56.2 54.3-18.6-1-34.7-11.5-43.5-26.7-15.6-9.3-26.1-26.4-26.1-45.9 0-23.4 15.6-44.4 38-51.1 19.1-5.7 29.8-25.8 24.1-44.9-.4-1.2-.8-2.3-1.2-3.4-7.5-3.2-16.2-4-24.7-1.4-25.3 7.6-48 23.5-64 44.6-16.5 21.9-25.3 48-25.3 75.5 0 29.4 10.2 56.4 27.1 77.8 21.6 17.7 49.2 28.3 79.3 28.3 30.4 0 58.2-10.8 79.9-28.8l15.4-226.6-15.3-200.3c-4.7 6.3-7.5 14.1-7.5 22.4z" fill="#212440"/><path d="m438.7 162.8c-4.5-2-9.5-3.1-14.6-3.1-33.3-.1-62.9-16.2-81.6-40.9-24.1-18.8-39.7-48.1-39.7-81 0-4.9-1-9.5-2.7-13.8-2.8-1.2-5.8-2.1-9-2.6s-6.5-.6-9.9-.2c-10 1.2-18.5 6.5-24.2 14v426.9c27.7-22.9 45.4-57.5 45.5-96.1 0-.1 0-.2 0-.2v-187c28.9 21.1 64.5 33.7 103 33.7 19.9 0 36-16.1 36-36-.1-4.9-1-9.5-2.8-13.7z"/></g></svg>