<?xml version="1.0" encoding="UTF-8" standalone="no"?>
<svg
   xmlns:dc="http://purl.org/dc/elements/1.1/"
   xmlns:cc="http://creativecommons.org/ns#"
   xmlns:rdf="http://www.w3.org/1999/02/22-rdf-syntax-ns#"
   xmlns:svg="http://www.w3.org/2000/svg"
   xmlns="http://www.w3.org/2000/svg"
   xmlns:sodipodi="http://sodipodi.sourceforge.net/DTD/sodipodi-0.dtd"
   xmlns:inkscape="http://www.inkscape.org/namespaces/inkscape"
   inkscape:version="1.0 (4035a4fb49, 2020-05-01)"
   sodipodi:docname="whatsapp-black.svg"
   xml:space="preserve"
   style="enable-background:new 0 0 418.135 418.135;"
   viewBox="0 0 418.135 418.135"
   y="0px"
   x="0px"
   id="Layer_1"
   version="1.1"><metadata
   id="metadata43"><rdf:RDF><cc:Work
       rdf:about=""><dc:format>image/svg+xml</dc:format><dc:type
         rdf:resource="http://purl.org/dc/dcmitype/StillImage" /><dc:title></dc:title></cc:Work></rdf:RDF></metadata><defs
   id="defs41" /><sodipodi:namedview
   inkscape:current-layer="Layer_1"
   inkscape:window-maximized="1"
   inkscape:window-y="32"
   inkscape:window-x="0"
   inkscape:cy="209.0675"
   inkscape:cx="209.0675"
   inkscape:zoom="1.8749925"
   showgrid="false"
   id="namedview39"
   inkscape:window-height="1028"
   inkscape:window-width="1920"
   inkscape:pageshadow="2"
   inkscape:pageopacity="0"
   guidetolerance="10"
   gridtolerance="10"
   objecttolerance="10"
   borderopacity="1"
   bordercolor="#666666"
   pagecolor="#ffffff" />
<g
   style="fill:#000000"
   id="g6">
	<path
   id="path2"
   d="M198.929,0.242C88.5,5.5,1.356,97.466,1.691,208.02c0.102,33.672,8.231,65.454,22.571,93.536   L2.245,408.429c-1.191,5.781,4.023,10.843,9.766,9.483l104.723-24.811c26.905,13.402,57.125,21.143,89.108,21.631   c112.869,1.724,206.982-87.897,210.5-200.724C420.113,93.065,320.295-5.538,198.929,0.242z M323.886,322.197   c-30.669,30.669-71.446,47.559-114.818,47.559c-25.396,0-49.71-5.698-72.269-16.935l-14.584-7.265l-64.206,15.212l13.515-65.607   l-7.185-14.07c-11.711-22.935-17.649-47.736-17.649-73.713c0-43.373,16.89-84.149,47.559-114.819   c30.395-30.395,71.837-47.56,114.822-47.56C252.443,45,293.218,61.89,323.887,92.558c30.669,30.669,47.559,71.445,47.56,114.817   C371.446,250.361,354.281,291.803,323.886,322.197z"
   style="fill:#000000" />
	<path
   id="path4"
   d="M309.712,252.351l-40.169-11.534c-5.281-1.516-10.968-0.018-14.816,3.903l-9.823,10.008   c-4.142,4.22-10.427,5.576-15.909,3.358c-19.002-7.69-58.974-43.23-69.182-61.007c-2.945-5.128-2.458-11.539,1.158-16.218   l8.576-11.095c3.36-4.347,4.069-10.185,1.847-15.21l-16.9-38.223c-4.048-9.155-15.747-11.82-23.39-5.356   c-11.211,9.482-24.513,23.891-26.13,39.854c-2.851,28.144,9.219,63.622,54.862,106.222c52.73,49.215,94.956,55.717,122.449,49.057   c15.594-3.777,28.056-18.919,35.921-31.317C323.568,266.34,319.334,255.114,309.712,252.351z"
   style="fill:#000000" />
</g>
<g
   id="g8">
</g>
<g
   id="g10">
</g>
<g
   id="g12">
</g>
<g
   id="g14">
</g>
<g
   id="g16">
</g>
<g
   id="g18">
</g>
<g
   id="g20">
</g>
<g
   id="g22">
</g>
<g
   id="g24">
</g>
<g
   id="g26">
</g>
<g
   id="g28">
</g>
<g
   id="g30">
</g>
<g
   id="g32">
</g>
<g
   id="g34">
</g>
<g
   id="g36">
</g>
</svg>
